<svg xmlns="http://www.w3.org/2000/svg" width="320" height="64" viewBox="0 0 320 64" fill="none" stroke="#ad8648" stroke-width="3" stroke-linecap="round" stroke-linejoin="round">
  <g transform="translate(0 0)">
    <path d="m11 22 12 10 9-19 9 19 12-10-5 29H16Z"/>
    <path d="M18 43h28M15 55h34"/>
    <circle cx="11" cy="18" r="2"/>
    <circle cx="32" cy="9" r="2"/>
    <circle cx="53" cy="18" r="2"/>
  </g>
  <g transform="translate(64 0)">
    <path d="M17 8h30v48l-5-4-5 4-5-4-5 4-5-4-5 4Z"/>
    <path d="M24 20h16M24 29h16M24 38h11"/>
  </g>
  <g transform="translate(128 0)">
    <path d="M12 19h40a5 5 0 0 1 5 5v25a5 5 0 0 1-5 5H12a5 5 0 0 1-5-5V24a5 5 0 0 1 5-5Z"/>
    <path d="m10 19 31-9a5 5 0 0 1 6 5v4M40 30h17v14H40a7 7 0 0 1 0-14Z"/>
    <circle cx="43" cy="37" r="1.5"/>
  </g>
  <g transform="translate(192 0)">
    <path d="M32 57S14 38 14 24a18 18 0 1 1 36 0c0 14-18 33-18 33Z"/>
    <circle cx="32" cy="24" r="7"/>
  </g>
  <g transform="translate(256 0)">
    <circle cx="25" cy="22" r="9"/>
    <path d="M9 53c1-13 6-21 16-21s15 8 16 21"/>
    <path d="m47 13 3 7 8 1-6 5 2 8-7-4-7 4 2-8-6-5 8-1Z"/>
  </g>
</svg>
